<svg width="35" height="35" viewBox="0 0 35 35" fill="none" xmlns="http://www.w3.org/2000/svg">
<g clip-path="url(#clip0_107_1257)">
<path d="M29.3664 35C28.8269 34.9985 28.2931 34.8901 27.7957 34.6811C27.2984 34.4721 26.8473 34.1666 26.4687 33.7823L17.5 24.866L8.53123 33.7881C7.95523 34.3725 7.21652 34.7698 6.41142 34.9282C5.60631 35.0867 4.77215 34.9989 4.01769 34.6763C3.25573 34.3698 2.6039 33.8407 2.14731 33.158C1.69073 32.4753 1.45061 31.6708 1.45831 30.8496V7.29167C1.45831 5.3578 2.22654 3.50313 3.59399 2.13568C4.96144 0.768227 6.81611 0 8.74998 0L26.25 0C27.2075 0 28.1557 0.188605 29.0404 0.555045C29.925 0.921486 30.7289 1.45859 31.406 2.13568C32.0831 2.81277 32.6202 3.6166 32.9866 4.50127C33.353 5.38593 33.5416 6.33411 33.5416 7.29167V30.8496C33.5498 31.6702 33.3106 32.4742 32.8551 33.1567C32.3996 33.8393 31.749 34.3689 30.9881 34.6763C30.4745 34.8911 29.9232 35.0011 29.3664 35ZM8.74998 2.91667C7.58965 2.91667 6.47686 3.3776 5.65638 4.19808C4.83591 5.01855 4.37498 6.13135 4.37498 7.29167V30.8496C4.37445 31.0926 4.44595 31.3303 4.58046 31.5327C4.71496 31.7351 4.90643 31.8931 5.13067 31.9867C5.35492 32.0803 5.60188 32.1054 5.84037 32.0588C6.07886 32.0121 6.29817 31.8958 6.4706 31.7246L16.4791 21.7773C16.7524 21.5057 17.122 21.3532 17.5073 21.3532C17.8925 21.3532 18.2622 21.5057 18.5354 21.7773L28.5323 31.7217C28.7047 31.8929 28.924 32.0092 29.1625 32.0558C29.401 32.1025 29.648 32.0774 29.8722 31.9838C30.0964 31.8902 30.2879 31.7322 30.4224 31.5298C30.5569 31.3274 30.6284 31.0897 30.6279 30.8467V7.29167C30.6279 6.13135 30.167 5.01855 29.3465 4.19808C28.526 3.3776 27.4132 2.91667 26.2529 2.91667H8.74998Z" fill="black"/>
</g>
<defs>
<clipPath id="clip0_107_1257">
<rect width="35" height="35" fill="white"/>
</clipPath>
</defs>
</svg>
