<svg width="30" height="30" viewBox="0 0 30 30" fill="none" xmlns="http://www.w3.org/2000/svg">
<g clip-path="url(#clip0_305_674)">
<path d="M30.0586 14.1797C30.0586 14.7656 30.0586 15.3516 30.0586 15.9375C30.041 16.0195 30.0176 16.1074 30.0117 16.1895C29.8652 18.2812 29.3145 20.2676 28.3008 22.1016C25.9688 26.3262 22.4238 28.9102 17.6719 29.8242C17.0977 29.9355 16.5176 29.9824 15.9375 30.0586C15.3516 30.0586 14.7656 30.0586 14.1797 30.0586C14.1035 30.041 14.0273 30.0176 13.9512 30.0117C11.8477 29.8711 9.85547 29.3145 8.01562 28.3008C3.79102 25.9629 1.20117 22.418 0.292969 17.6719C0.181641 17.0977 0.134766 16.5176 0.0585938 15.9375C0.0585938 15.3516 0.0585938 14.7656 0.0585938 14.1797C0.0761719 14.0977 0.0996094 14.0098 0.105469 13.9277C0.251953 11.8359 0.808594 9.84961 1.81641 8.01562C4.14844 3.79102 7.69336 1.20703 12.4453 0.292969C13.0195 0.181641 13.5996 0.134766 14.1797 0.0585938C14.7656 0.0585938 15.3516 0.0585938 15.9375 0.0585938C16.0137 0.0761719 16.0898 0.0996094 16.166 0.105469C18.2695 0.246094 20.2617 0.802734 22.1016 1.81641C26.3262 4.1543 28.916 7.69922 29.8242 12.4453C29.9297 13.0195 29.9824 13.5996 30.0586 14.1797ZM15.0586 27.7148C22.0371 27.7148 27.7031 22.0547 27.709 15.0703C27.7266 8.08594 22.043 2.40234 15.0586 2.40234C8.07422 2.40234 2.41406 8.0625 2.40234 15.0469C2.39062 22.0312 8.07422 27.7148 15.0586 27.7148Z" fill="#191919"/>
<path d="M13.0605 17.3789C13.1308 17.2676 13.1777 17.1504 13.2597 17.0684C15.4746 14.8477 17.6894 12.6387 19.9043 10.418C20.168 10.1543 20.4609 9.95508 20.8476 9.95508C21.3164 9.96094 21.6738 10.1719 21.8906 10.5879C22.1074 11.0039 22.0722 11.4199 21.8027 11.8008C21.7265 11.9121 21.6269 12.0117 21.5332 12.1055C19.0137 14.625 16.4941 17.1445 13.9746 19.6641C13.3125 20.3262 12.6797 20.3262 12.0234 19.6641C10.8515 18.4922 9.67381 17.3203 8.50194 16.1426C8.06248 15.7031 7.96287 15.1816 8.21483 14.707C8.59569 13.9805 9.51561 13.8574 10.1426 14.4727C11.0215 15.334 11.8828 16.2129 12.75 17.0801C12.832 17.1621 12.9082 17.2324 13.0605 17.3789Z" fill="#191919"/>
</g>
<defs>
<clipPath id="clip0_305_674">
<rect width="30" height="30" fill="white"/>
</clipPath>
</defs>
</svg>
