<svg width="26" height="26" viewBox="0 0 26 26" fill="none" xmlns="http://www.w3.org/2000/svg">
<path d="M20.5833 0H5.41667C2.42992 0 0 2.42992 0 5.41667V20.5833C0 23.5701 2.42992 26 5.41667 26H20.5833C23.5701 26 26 23.5701 26 20.5833V5.41667C26 2.42992 23.5701 0 20.5833 0ZM14.0833 18.4167V19.5C14.0779 20.917 11.9221 20.9159 11.9167 19.5V18.4167H11.6263C10.4704 18.4167 9.39142 17.7948 8.81183 16.7928C8.51175 16.2738 8.68942 15.6119 9.20617 15.3129C9.72508 15.0107 10.387 15.1905 10.686 15.7073C10.8799 16.0431 11.2396 16.25 11.6253 16.25H14.0822C15.1623 16.3204 15.6455 14.5708 14.4679 14.3433L11.1735 13.7941C7.37967 13.091 8.1965 7.56167 11.9156 7.58333V6.5C11.9221 5.083 14.0768 5.08408 14.0822 6.5V7.58333H14.3726C15.5285 7.58333 16.6075 8.20625 17.1871 9.20833C17.4872 9.72617 17.3095 10.3881 16.7928 10.6882C16.2728 10.9883 15.6108 10.8106 15.3129 10.2928C15.119 9.958 14.7593 9.75108 14.3737 9.75108H11.9167C10.8366 9.68067 10.3545 11.4303 11.531 11.6578L14.8254 12.207C18.6193 12.9101 17.8024 18.4383 14.0833 18.4167Z" fill="#D77070"/>
</svg>
