<svg width="35" height="35" viewBox="0 0 35 35" fill="none" xmlns="http://www.w3.org/2000/svg">
<g clip-path="url(#clip0_107_1248)">
<path d="M1.46 6.92815H5.4496C6.23702 9.82534 9.22396 11.5357 12.1212 10.7482C13.9819 10.2425 15.4355 8.78891 15.9412 6.92815H33.5401C34.3454 6.92815 34.9983 6.27531 34.9983 5.46998C34.9983 4.66465 34.3454 4.01182 33.5401 4.01182H15.9412C15.1538 1.11456 12.1669 -0.595762 9.26969 0.19166C7.40893 0.6974 5.95534 2.15099 5.4496 4.01175H1.46C0.654666 4.01175 0.00183105 4.66458 0.00183105 5.46991C0.00183105 6.27524 0.654666 6.92815 1.46 6.92815Z" fill="black"/>
<path d="M33.5401 16.0417H29.5505C28.7647 13.145 25.7794 11.4337 22.8826 12.2195C21.0203 12.7247 19.5655 14.1794 19.0603 16.0417H1.46C0.654666 16.0417 0.00183105 16.6946 0.00183105 17.4999C0.00183105 18.3052 0.654666 18.9581 1.46 18.9581H19.0603C19.8462 21.8549 22.8314 23.5661 25.7282 22.7804C27.5905 22.2752 29.0453 20.8204 29.5505 18.9581H33.5401C34.3454 18.9581 34.9983 18.3052 34.9983 17.4999C34.9983 16.6946 34.3454 16.0417 33.5401 16.0417Z" fill="black"/>
<path d="M33.5401 28.0718H15.9412C15.1538 25.1746 12.1669 23.4643 9.26969 24.2517C7.40893 24.7575 5.95534 26.211 5.4496 28.0718H1.46C0.654666 28.0718 0.00183105 28.7246 0.00183105 29.53C0.00183105 30.3353 0.654666 30.9881 1.46 30.9881H5.4496C6.23702 33.8853 9.22396 35.5956 12.1212 34.8082C13.9819 34.3025 15.4355 32.8489 15.9412 30.9881H33.5401C34.3454 30.9881 34.9983 30.3353 34.9983 29.53C34.9983 28.7246 34.3454 28.0718 33.5401 28.0718Z" fill="black"/>
</g>
<defs>
<clipPath id="clip0_107_1248">
<rect width="35" height="35" fill="white"/>
</clipPath>
</defs>
</svg>
