<svg width="35" height="35" viewBox="0 0 35 35" fill="none" xmlns="http://www.w3.org/2000/svg">
<g clip-path="url(#clip0_107_1241)">
<path d="M2.91667 30.59V-0.0350342H0V30.59C0 31.7503 0.460936 32.8631 1.28141 33.6836C2.10188 34.504 3.21468 34.965 4.375 34.965H35V32.0483H4.375C3.98823 32.0483 3.61729 31.8947 3.3438 31.6212C3.07031 31.3477 2.91667 30.9767 2.91667 30.59Z" fill="black"/>
<path d="M32.8129 5.79834H24.792L28.8652 9.87146L22.6045 16.1321L19.6879 13.2154L9.16016 23.7431L11.2295 25.8125L19.6952 17.3542L22.6118 20.2708L30.9345 11.9481L35.0004 16.0067V7.98584C35.0004 7.40568 34.7699 6.84928 34.3597 6.43904C33.9494 6.02881 33.393 5.79834 32.8129 5.79834Z" fill="black"/>
</g>
<defs>
<clipPath id="clip0_107_1241">
<rect width="35" height="35" fill="white"/>
</clipPath>
</defs>
</svg>
