<svg width="9" height="12" viewBox="0 0 9 12" fill="none" xmlns="http://www.w3.org/2000/svg">
<path d="M8.05927 4.14941L3.66473 0.942845C3.32149 0.692741 2.91536 0.5421 2.49135 0.507618C2.06734 0.473137 1.64201 0.556162 1.26252 0.747492C0.883022 0.938821 0.564183 1.23098 0.341339 1.59159C0.118494 1.95219 0.000350692 2.36716 2.78005e-06 2.79049V9.20683C-0.00065907 9.63057 0.116867 10.0462 0.339499 10.4074C0.562131 10.7686 0.881134 11.0613 1.261 11.2528C1.64086 11.4443 2.06669 11.5272 2.49107 11.4922C2.91546 11.4572 3.32175 11.3056 3.66473 11.0545L8.05927 7.84791C8.35086 7.63497 8.58797 7.35671 8.7514 7.03564C8.91484 6.71457 9 6.35971 9 5.9998C9 5.6399 8.91484 5.28504 8.7514 4.96397C8.58797 4.6429 8.35086 4.36464 8.05927 4.1517V4.14941Z" fill="white"/>
</svg>
